<svg width="170" height="79" viewBox="0 0 170 79" fill="none" xmlns="http://www.w3.org/2000/svg">
<path fill-rule="evenodd" clip-rule="evenodd" d="M26.0085 50.3533C35.0863 50.3533 42.0747 46.6316 47.2621 40.8665V21.5279H24.0634V32.5472H34.8702V36.342C33.1411 37.8015 29.5388 39.261 26.0085 39.261C18.1555 39.261 12.608 33.131 12.608 25.1767C12.608 17.2223 18.1555 11.0923 26.0085 11.0923C30.6915 11.0923 34.3658 14.0843 36.167 17.2953L46.5416 11.8221C43.2275 5.76509 36.7434 0 26.0085 0C11.6714 0 0 9.70579 0 25.1767C0 40.6476 11.6714 50.3533 26.0085 50.3533ZM116.257 49.4776V0.802734H99.0382L88.9519 27.22L78.9375 0.802734H61.7185V49.4776H74.1104V17.8061L86.2141 49.4776H91.6896L103.865 17.8061V49.4776H116.257ZM170 34.0797C170 43.8585 162.867 50.3533 149.971 50.3533C140.245 50.3533 133.473 47.2884 128.646 42.6179L135.202 33.204C138.66 36.7069 143.991 39.6259 150.548 39.6259C154.798 39.6259 157.392 37.9474 157.392 35.6122C157.392 33.1348 153.602 32.323 148.849 31.3051C140.863 29.5946 130.159 27.302 130.159 15.5439C130.159 7.37056 137.003 0.0729752 149.323 0.0729752C157.032 0.0729752 163.732 2.4082 168.847 6.85973L162.075 15.8358C158.04 12.4789 152.781 10.8004 148.026 10.8004C144.424 10.8004 142.839 12.2599 142.839 14.3033C142.839 16.5938 146.542 17.4216 151.214 18.4658C159.194 20.2494 170 22.6646 170 34.0797ZM13.3273 78.9998C16.2524 78.9998 18.5975 77.7738 20.2617 75.9093V69.5239H12.2935V72.1546H17.3114V74.811C16.5549 75.5261 15.042 76.3435 13.3273 76.3435C9.99878 76.3435 7.52759 73.7382 7.52759 70.1624C7.52759 66.5866 9.99878 64.0069 13.3273 64.0069C15.2185 64.0069 16.8071 65.003 17.6897 66.2801L20.1105 64.9008C18.7488 62.9341 16.6055 61.3506 13.3273 61.3506C8.46057 61.3506 4.50171 64.8242 4.50171 70.1624C4.50171 75.5006 8.46057 78.9998 13.3273 78.9998ZM55.5087 78.6677L51.3984 71.9759C53.4158 71.6438 55.3826 70.0092 55.3826 66.9697C55.3826 63.8281 53.214 61.6315 49.8855 61.6315H42.4972V78.6677H45.4474V72.3079H48.3726L52.1045 78.6677H55.5087ZM49.4821 69.6771H45.4474V64.2623H49.4821C51.1462 64.2623 52.3567 65.3351 52.3567 66.9697C52.3567 68.6044 51.1462 69.6771 49.4821 69.6771ZM93.9362 70.1624C93.9362 75.2452 90.3806 78.9742 85.3374 78.9742C80.2942 78.9742 76.7388 75.2452 76.7388 70.1624C76.7388 65.0796 80.2942 61.3506 85.3374 61.3506C90.3806 61.3506 93.9362 65.0796 93.9362 70.1624ZM79.7646 70.1624C79.7646 73.6616 81.9332 76.3179 85.3374 76.3179C88.7164 76.3179 90.9102 73.6616 90.9102 70.1624C90.9102 66.6377 88.7164 64.0069 85.3374 64.0069C81.9332 64.0069 79.7646 66.6377 79.7646 70.1624ZM123.228 78.9742C128.095 78.9742 130.49 76.1647 130.49 71.9248V61.6315H127.515V71.8481C127.515 74.5556 126.027 76.3179 123.228 76.3179C120.404 76.3179 118.916 74.5556 118.916 71.8481V61.6315H115.941V71.9503C115.941 76.1391 118.336 78.9742 123.228 78.9742ZM156.179 72.3079V78.6677H153.229V61.6315H160.617C164.148 61.6315 166.115 64.0835 166.115 66.9697C166.115 69.8559 164.122 72.3079 160.617 72.3079H156.179ZM156.179 69.6771H160.214C161.878 69.6771 163.089 68.6044 163.089 66.9697C163.089 65.3351 161.878 64.2623 160.214 64.2623H156.179V69.6771Z" fill="white"/>
</svg>
