<svg width="10" height="16" viewBox="0 0 10 16" fill="none" xmlns="http://www.w3.org/2000/svg">
<path fill-rule="evenodd" clip-rule="evenodd" d="M0.788299 4.0403C0.774871 6.25661 2.66354 8.09096 4.96677 8.09853C7.29318 8.10622 9.19479 6.31361 9.20676 4.10182C9.21848 1.83778 7.34787 0.00611956 5.0173 1.60491e-05C2.69138 -0.00620954 0.801727 1.79958 0.788299 4.0403ZM5.00046 2.06813C6.14377 2.06923 7.05588 2.94521 7.05978 4.04567C7.06369 5.14589 6.15402 6.02773 5.0112 6.03151C3.86496 6.03554 2.94479 5.16567 2.93625 4.06947C2.92746 2.959 3.84787 2.06703 5.00046 2.06813ZM0.728485 10.086C1.72507 10.8349 2.88913 11.1403 4.18014 11.2697C4.14523 11.3054 4.1152 11.3369 4.08786 11.3656C4.04367 11.412 4.00656 11.4509 3.96799 11.4884L3.36423 12.0701C2.61862 12.7883 1.87326 13.5066 1.12595 14.2234C0.929657 14.4116 0.789032 14.6215 0.775116 14.896C0.754852 15.3021 1.01706 15.7061 1.42892 15.898C1.81662 16.0788 2.21408 16.0219 2.54831 15.7052C3.29269 15.0003 4.03244 14.2913 4.76047 13.5713C4.9426 13.3913 5.04172 13.3521 5.24826 13.5593C5.72482 14.0385 6.21408 14.5058 6.70358 14.9732C6.94211 15.2011 7.18088 15.4291 7.41818 15.6585C7.6069 15.8413 7.81955 15.9717 8.09225 15.9898C8.52243 16.0181 8.9614 15.7536 9.15744 15.3513C9.33664 14.9834 9.26852 14.5911 8.94308 14.2747C8.33591 13.6848 7.72555 13.0977 7.11545 12.5105C6.76511 12.1735 6.41501 11.8364 6.06515 11.4988C6.01462 11.4501 5.9736 11.4069 5.91037 11.3403L5.84177 11.2682C6.54782 11.187 7.26144 11.065 7.91281 10.8223C8.60178 10.5656 9.22189 10.1978 9.73752 9.68935C10.0735 9.35768 10.0771 8.94081 9.80417 8.51369C9.5654 8.13966 9.1506 7.98268 8.70554 8.09242C8.47678 8.14906 8.27927 8.2599 8.0947 8.39601C6.23019 9.60085 3.67868 9.56703 1.8215 8.34084C1.73044 8.28029 1.63522 8.22377 1.53561 8.17848C1.02023 7.94508 0.524627 8.05385 0.229217 8.46034C-0.115754 8.93544 -0.0718083 9.39638 0.364227 9.79897C0.454315 9.88185 0.55368 9.9557 0.652801 10.0294L0.728485 10.086Z" fill="#CCCCCC"/>
</svg>
